<?xml version="1.0" encoding="iso-8859-1"?>
<!-- Uploaded to: SVG Repo, www.svgrepo.com, Generator: SVG Repo Mixer Tools -->
<svg fill="#000000" height="800px" width="800px" version="1.1" id="Layer_1" xmlns="http://www.w3.org/2000/svg" xmlns:xlink="http://www.w3.org/1999/xlink" 
	 viewBox="0 0 512 512" xml:space="preserve">
<g>
	<g>
		<path d="M505.769,201.945l-37.757-77.484c-9.378-19.245-23.893-35.516-41.973-47.052c-18.584-11.858-40.109-18.125-62.249-18.125
			c-12.324,0-24.459,1.926-36.074,5.727c-1.511,0.495-3.026,1.025-4.499,1.577c-4.181,1.565-6.302,6.223-4.738,10.405
			c1.565,4.182,6.223,6.305,10.405,4.738c1.266-0.473,2.565-0.929,3.862-1.355c9.988-3.267,20.432-4.924,31.044-4.924
			c38.462,0,72.828,21.492,89.687,56.09l37.757,77.484c3.05,6.263,4.598,13,4.598,20.025c0,11.24-4.11,22.051-11.573,30.438
			l-51.17,57.511c-5.217,5.862-12.219,9.751-19.819,11.159c4.49-7.765,7.506-16.542,9.066-26.431
			c3.178-20.156-0.157-42.734-4.237-64.131c-0.835-4.386-5.071-7.265-9.454-6.427c-4.386,0.835-7.263,5.068-6.427,9.454
			c7.734,40.576,11.724,78.743-23.921,99.84c-0.94,0.557-1.885,1.11-2.854,1.636c-8.135,4.404-16.622,8.369-25.328,11.847
			c-0.241-4.277-0.345-8.699-0.295-13.128c0.086-4.551,0.344-9.348,0.769-14.255c0.684-7.924-1.77-15.637-6.907-21.719
			c-5.131-6.074-12.327-9.793-20.26-10.473c-16.393-1.382-30.864,10.747-32.275,27.086c-0.383,4.448,2.91,8.367,7.359,8.75
			c4.444,0.382,8.367-2.91,8.75-7.359c0.643-7.463,7.283-13.002,14.785-12.369c3.641,0.312,6.94,2.016,9.289,4.797
			c2.343,2.773,3.461,6.287,3.15,9.895c-0.454,5.267-0.732,10.428-0.827,15.401c-0.059,5.237,0.069,10.421,0.383,15.454
			c0.751,10.99,2.389,21.246,4.869,30.498c3,11.1,7.041,20.472,12.049,27.91c3.104,4.535,6.399,8.157,9.795,10.769
			c2.107,1.677,4.166,2.783,5.907,3.644c0.115,0.058,0.234,0.112,0.352,0.165c2.073,0.904,4.254,1.545,6.685,1.957l1.328,0.223
			c1.066,0.181,2.178,1.103,2.242,2.52c0.041,0.908-0.357,1.541-0.698,1.913c-0.284,0.309-0.906,0.834-1.893,0.878
			c-3.125,0.142-6.203-0.126-9.13-0.789c-3.187-0.806-6.06-1.877-8.613-3.221c-4.917-2.524-9.461-6.011-14.273-10.946
			c-3.746-3.877-7.277-8.436-10.786-13.921c-3-4.715-5.714-9.736-8.288-15.337c-4.535-9.917-8.155-20.65-11.071-32.813
			c-1.04-4.341-5.401-7.023-9.745-5.977c-4.342,1.04-7.018,5.403-5.977,9.745c3.161,13.19,7.116,24.892,12.097,35.784
			c2.891,6.287,5.947,11.94,9.355,17.296c4.106,6.417,8.288,11.8,12.815,16.485c6.014,6.167,12.062,10.768,18.415,14.03
			c3.64,1.917,7.75,3.458,12.22,4.579c0.053,0.014,0.106,0.026,0.157,0.038c3.63,0.833,7.389,1.254,11.206,1.254
			c0.779,0,1.561-0.017,2.344-0.053c5.035-0.224,9.682-2.392,13.085-6.101c3.41-3.718,5.163-8.539,4.936-13.572
			c-0.396-8.8-6.993-16.258-15.701-17.735l-1.325-0.222c-1.037-0.177-1.94-0.427-2.754-0.766c-0.974-0.488-1.983-1.038-2.852-1.733
			c-0.047-0.038-0.095-0.076-0.143-0.112c-2.026-1.55-4.221-4.012-6.311-7.065c-3.977-5.909-7.281-13.663-9.813-23.03
			c-0.998-3.724-1.837-7.66-2.527-11.76c10.733-4.078,21.187-8.852,31.154-14.248c1.192-0.647,2.336-1.315,3.391-1.94
			c5.723-3.387,10.737-7.194,15.107-11.411c1.415,1.218,3.253,1.959,5.267,1.959c14.602,0,28.548-6.261,38.262-17.177l51.171-57.511
			c10.098-11.351,15.66-25.978,15.66-41.185C512,219.553,509.904,210.433,505.769,201.945z"/>
	</g>
</g>
<g>
	<g>
		<circle cx="320.674" cy="229.052" r="16.168"/>
	</g>
</g>
<g>
	<g>
		<circle cx="191.326" cy="229.052" r="16.168"/>
	</g>
</g>
<g>
	<g>
		<path d="M354.322,113.446c-4.166-4.633-7.628-7.625-12.434-11.663c-11.441-9.611-23.999-17.114-37.31-22.416
			c-0.281-0.147-0.571-0.279-0.869-0.396c-3.573-1.394-7.203-2.617-10.877-3.686c0,0.005-0.001,0.011-0.001,0.015
			c-10.608-3.096-21.609-4.84-32.84-5.171l-0.124-0.004c-1.282-0.037-2.568-0.061-3.865-0.063c-0.001,0-0.001,0-0.002,0h-0.001
			c-0.001,0-0.002,0-0.003,0c-13.4,0.006-26.492,2.045-39.129,6.051c-0.129,0.041-0.26,0.082-0.389,0.123
			c-0.8,0.257-1.597,0.52-2.394,0.792c-0.221,0.075-0.442,0.154-0.663,0.231c-5.387,1.874-10.69,4.1-15.89,6.701
			c-14.26,7.131-27.394,17.004-39.035,29.341c-3.064,3.248-2.917,8.364,0.331,11.429s8.364,2.916,11.428-0.332
			c3.573-3.787,7.309-7.29,11.173-10.537c3.33,3.664,7.302,6.713,11.759,8.946c8.716,4.367,15.572,11.71,19.305,20.681
			c7.323,17.602,24.341,28.976,43.354,28.976h0.307c19.012,0,36.029-11.373,43.352-28.973c3.751-9.011,10.646-16.375,19.414-20.733
			c3.998-1.988,5.628-6.839,3.64-10.838c-1.987-3.998-6.835-5.629-10.838-3.64c-12.255,6.091-21.895,16.39-27.144,29
			c-4.806,11.552-15.964,19.016-28.424,19.016h-0.307c-12.462,0-23.62-7.465-28.426-19.019
			c-5.222-12.55-14.808-22.822-26.992-28.924c-2.157-1.081-4.122-2.486-5.853-4.14c3.322-2.108,6.714-4.053,10.188-5.789
			c2.01-1.006,4.038-1.949,6.08-2.831c14.138,7.976,25.253,20.452,31.505,35.475c2.291,5.504,7.588,9.06,13.497,9.06h0.307
			c5.909,0,11.207-3.555,13.497-9.059c6.276-15.082,17.444-27.587,31.656-35.558c10.723,4.589,20.868,10.829,30.182,18.653
			c4.412,3.706,7.34,6.236,10.812,10.096c1.596,1.774,3.8,2.677,6.014,2.677c1.925,0,3.859-0.684,5.404-2.074
			C357.038,121.876,357.308,116.766,354.322,113.446z M256,121.935c-5.898-12.855-14.763-24.053-25.767-32.742
			c5.805-1.354,11.706-2.24,17.683-2.662v2.395c0,4.466,3.62,8.084,8.084,8.084c4.466,0,8.084-3.619,8.084-8.084v-2.404
			c6.003,0.415,11.918,1.311,17.723,2.642C270.784,97.855,261.907,109.062,256,121.935z"/>
	</g>
</g>
<g>
	<g>
		<path d="M189.964,310.487c7.503-0.636,14.142,4.906,14.787,12.369c0.384,4.447,4.279,7.73,8.75,7.359
			c4.447-0.384,7.743-4.302,7.359-8.75c-1.412-16.34-15.903-28.495-32.274-27.086c-7.934,0.68-15.129,4.399-20.26,10.473
			c-1.285,1.521-2.402,3.143-3.344,4.845c-2.354,4.255-3.616,9.01-3.673,13.914c-0.012,0.981,0.025,1.968,0.111,2.959v0.001
			c0.423,4.895,0.681,9.69,0.766,14.193c0.051,4.5-0.053,8.939-0.294,13.191c-8.703-3.477-17.19-7.444-25.327-11.848
			c-0.974-0.528-1.919-1.082-2.859-1.638c-35.644-21.096-31.653-59.263-23.918-99.839c0.836-4.385-2.042-8.619-6.427-9.454
			c-4.387-0.842-8.619,2.042-9.454,6.427c-4.079,21.397-7.415,43.975-4.237,64.132c1.559,9.888,4.576,18.665,9.066,26.431
			c-7.599-1.408-14.601-5.298-19.817-11.161l-51.172-57.51c-7.467-8.391-11.577-19.202-11.577-30.442
			c0-7.027,1.547-13.765,4.598-20.025l37.758-77.484c16.858-34.598,51.224-56.09,89.686-56.09c11.911,0,23.56,2.077,34.622,6.173
			c4.182,1.55,8.838-0.587,10.388-4.774c1.55-4.188-0.586-8.838-4.774-10.389c-12.865-4.763-26.403-7.179-40.236-7.179
			c-22.14,0-43.665,6.267-62.248,18.124C67.88,88.944,53.367,105.215,43.989,124.46L6.231,201.945C2.096,210.43,0,219.551,0,229.052
			c0,15.207,5.562,29.834,15.662,41.185l51.172,57.51c9.713,10.917,23.659,17.178,38.261,17.178c2.014,0,3.851-0.741,5.267-1.959
			c4.37,4.218,9.384,8.025,15.108,11.412c0.996,0.59,2.162,1.274,3.394,1.941c9.967,5.396,20.423,10.171,31.15,14.248
			c-0.69,4.099-1.525,8.028-2.521,11.743c-2.535,9.382-5.839,17.136-9.782,22.994c-2.126,3.105-4.321,5.566-6.348,7.118
			c-0.047,0.036-0.095,0.072-0.141,0.111c-0.869,0.696-1.877,1.246-2.852,1.734c-0.815,0.338-1.717,0.59-2.739,0.763l-1.351,0.227
			c-8.694,1.475-15.293,8.931-15.69,17.731c-0.227,5.035,1.526,9.855,4.937,13.573c3.403,3.709,8.05,5.877,13.083,6.101
			c0.785,0.036,1.566,0.053,2.346,0.053c3.816,0,7.575-0.42,11.206-1.254c0.053-0.012,0.106-0.024,0.157-0.038
			c4.469-1.121,8.58-2.662,12.144-4.54c6.43-3.302,12.479-7.902,18.518-14.096c4.497-4.654,8.679-10.038,12.8-16.476
			c3.399-5.343,6.456-10.995,9.35-17.293c4.974-10.877,8.929-22.577,12.09-35.77c1.037-4.343-1.64-8.706-5.981-9.747
			c-4.336-1.04-8.705,1.636-9.745,5.978c-2.915,12.165-6.536,22.898-11.065,32.8c-2.579,5.612-5.291,10.633-8.281,15.334
			c-3.524,5.505-7.056,10.064-10.771,13.911c-4.84,4.963-9.384,8.45-14.377,11.013c-2.478,1.306-5.35,2.377-8.538,3.182
			c-2.924,0.665-5.994,0.93-9.13,0.789c-0.985-0.044-1.608-0.57-1.892-0.88c-0.341-0.372-0.739-1.007-0.698-1.913
			c0.065-1.415,1.176-2.338,2.231-2.517l1.355-0.229c2.414-0.411,4.595-1.05,6.669-1.954c0.12-0.052,0.238-0.108,0.356-0.165
			c1.741-0.862,3.8-1.968,5.907-3.644c3.394-2.612,6.689-6.236,9.829-10.822c4.972-7.386,9.013-16.758,12.017-27.873
			c2.476-9.239,4.112-19.495,4.867-30.529c0.312-4.984,0.439-10.168,0.378-15.468c-0.094-4.924-0.371-10.085-0.825-15.34
			c-0.039-0.451-0.056-0.9-0.051-1.347c0.038-3.127,1.15-6.119,3.199-8.547C183.024,312.503,186.324,310.798,189.964,310.487z"/>
	</g>
</g>
<g>
	<g>
		<path d="M288.337,328.397c-4.466,0-8.084,3.618-8.084,8.084v73.118l-9.162-12.216c-3.597-4.794-9.096-7.545-15.091-7.545
			s-11.495,2.751-15.091,7.545l-5.67,7.56c-2.679,3.572-1.954,8.639,1.617,11.318c3.571,2.679,8.639,1.954,11.318-1.617l5.67-7.56
			c0.703-0.938,1.652-1.078,2.156-1.078s1.453,0.14,2.156,1.078l21.41,28.548c-0.494,0.557-1.206,0.915-2.008,0.915h-43.116
			c-1.485,0-2.695-1.208-2.695-2.695v-97.371c0-4.466-3.62-8.084-8.084-8.084c-4.465,0-8.084,3.619-8.084,8.084v97.369
			c0,10.401,8.463,18.863,18.863,18.863h43.116c10.196,0,18.507-8.136,18.832-18.254c0.011-0.147,0.019-0.292,0.023-0.439
			c0-0.057,0.009-0.113,0.009-0.17v-97.37C296.421,332.016,292.803,328.397,288.337,328.397z"/>
	</g>
</g>
</svg>